# xmcd
#
# Track frame offsets:
#	150
#	14705
#	32187
#	47600
#	61853
#	77647
#	96825
#	110239
#	127166
#	142918
#	157595
#
# Disc length: 2292 seconds
#
# Revision: 1
# Processed by: cddbd v1.4PL0 Copyright (c) Steve Scherf et al.
# Submitted via: EasyCDDAExtractor 5.0.6
#
DISCID=8e08f20b
DTITLE=Kevin Freeman and the Road Scholars - Live
DYEAR=1999
DGENRE=Country
TTITLE0=Every Night's a Saturday Night
TTITLE1=Honky Tonky Night Time Man
TTITLE2=The Rock
TTITLE3=We All Get Lucky Sometimes
TTITLE4=Folsom Prison Blues
TTITLE5=Honky Tonky Life
TTITLE6=Guitar Town
TTITLE7=Flyin' Low
TTITLE8=One Foot in Front of the Other
TTITLE9=Fresh Coat of Paint
TTITLE10=Small Town Saturday Night
EXTD=
EXTT0=
EXTT1=
EXTT2=
EXTT3=
EXTT4=
EXTT5=
EXTT6=
EXTT7=
EXTT8=
EXTT9=
EXTT10=
PLAYORDER=
